<?xml version="1.0" encoding="UTF-8"?>
<svg id="Layer_1" data-name="Layer 1" xmlns="http://www.w3.org/2000/svg" viewBox="0 0 40 40">
  <defs>
    <style>
      .cls-1 {
        fill: #3a3c32;
      }

      .cls-2 {
        fill: #fdfdf1;
      }

      .cls-3 {
        fill: #feb3b1;
      }

      .cls-4 {
        fill: #ad8985;
      }
    </style>
  </defs>
  <polygon class="cls-2" points="4.59 25.97 7.16 39.09 32.47 39.31 35.49 25.97 31.5 25.97 28.69 23.59 26.56 25.54 23.89 26.17 21.95 25.6 19.87 22.42 18.91 25.54 16.52 26.42 12.44 25.2 11.11 22.42 9.37 25.35 6.73 26.17 4.59 25.97"/>
  <path class="cls-3" d="M28.05,6.55s-2.13-1.83-6.21-1.88-6.88-.04-9.96,1.92S4.37,13.12,3.58,15.17s-1.67,7.31-1.61,8.31.73,2.09,2.62,2.5,3.93.3,4.78-.63,1.62-3.43,1.62-3.43c0,0,.6,2.67,1.46,3.29,0,0,2.63,1.06,4.65.89s3.42-1.58,3.16-2.71-.85,1.43,1.7,2.22,2.9,1.07,3.96.56,2.46-1.24,2.77-2.58,1.4,1.4,2.02,1.82,2.36,1.28,3.53.92,2.84-1.44,3.18-2.16.59-4.47,0-6.25-1.36-6.3-4.3-8.21-5.07-3.15-5.07-3.15Z"/>
  <circle class="cls-4" cx="20.04" cy="4.67" r="3.38"/>
  <path class="cls-1" d="M32.88,40H7.12c-.41,0-.75-.29-.83-.69l-2.46-12.78c-1.62-.92-2.71-2.64-2.71-4.62,0-.25.02-.5.05-.75v-.11C1.82,13.12,7.59,6.38,15.3,4.42c.14-2.46,2.19-4.42,4.7-4.42s4.57,1.96,4.7,4.42c7.84,1.99,13.54,8.75,14.12,16.77.03.24.05.48.05.72,0,1.98-1.09,3.71-2.71,4.62l-2.46,12.78c-.08.4-.42.69-.83.69ZM7.82,38.31h24.36l2.14-11.14c-.26.04-.52.06-.79.06,0,0,0,0,0,0h-.02c-1.89,0-3.54-.98-4.5-2.45-.95,1.47-2.61,2.45-4.49,2.45h0s0,0,0,0h0s0,0,0,0h0c-1.89,0-3.55-.98-4.5-2.45-.15.22-.31.44-.48.64-.98,1.11-2.41,1.81-4.01,1.82h0s0,0,0,0c0,0,0,0,0,0h0s0,0,0,0h0c-1.88,0-3.54-.98-4.49-2.45-.95,1.47-2.61,2.45-4.5,2.45,0,0,0,0,0,0h0s0,0,0,0c-.27,0-.53-.02-.79-.06l2.14,11.14ZM33.52,25.54h0s0,0,0,0c2,0,3.64-1.61,3.66-3.59,0-.04-.01-.08-.02-.12l-.03-.48c-.51-7.25-5.61-13.37-12.66-15.24-.61,1.88-2.39,3.24-4.48,3.24s-3.87-1.36-4.48-3.25c-6.92,1.85-12.07,7.94-12.64,15.07v.13s-.01.05-.02.07c-.03.18-.04.36-.04.54,0,2,1.64,3.62,3.66,3.62,0,0,0,0,0,0h0s0,0,0,0c1.74,0,3.23-1.23,3.58-2.88.03-.14.05-.29.07-.44v-.31s.01-.04.02-.06c.03-.44.4-.78.84-.78s.85.38.85.85c0,.02,0,.05,0,.07v.2c.08.88.46,1.67,1.05,2.26.67.67,1.59,1.09,2.61,1.09,0,0,0,0,0,0h0s0,0,0,0c0,0,0,0,0,0h0c.89,0,1.72-.33,2.36-.87.73-.62,1.21-1.52,1.28-2.53v-.21s0-.05.01-.07h0c.04-.46.42-.81.88-.78.45.02.81.39.81.84,0,.02,0,.05,0,.07v.2c.08.86.45,1.64,1.02,2.23.67.69,1.61,1.12,2.64,1.12,0,0,0,0,0,0h.01s0,0,0,0c1.6,0,2.98-1.04,3.47-2.49.09-.27.15-.56.17-.85v-.28s.01-.02.01-.03c0-.07,0-.14,0-.21.04-.45.44-.79.89-.76.45.03.8.41.79.87v.15s0,.03,0,.05v.22c.08.86.45,1.63,1.01,2.22.67.69,1.61,1.12,2.64,1.12,0,0,0,0,0,0h0ZM17.01,5.05c.19,1.47,1.46,2.61,2.99,2.61s2.84-1.17,3-2.66c0,0,0,0,0,0,.01-.1.02-.21.02-.32h0c0-1.65-1.35-2.99-3.02-2.99s-3.02,1.34-3.02,2.99h0c0,.11,0,.21.02.3,0,.03,0,.05,0,.08ZM27.41,36.17s-.07,0-.11,0c-.46-.06-.79-.48-.73-.94l.64-5.11c.06-.46.48-.79.94-.73.46.06.79.48.73.94l-.64,5.11c-.05.43-.42.74-.84.74ZM13.24,36.17c-.42,0-.78-.31-.84-.74l-.64-5.11c-.06-.46.27-.89.73-.94.46-.06.89.27.94.73l.64,5.11c.06.46-.27.89-.73.94-.04,0-.07,0-.11,0ZM20.32,36.17c-.47,0-.85-.38-.85-.85v-5.11c0-.47.38-.85.85-.85s.85.38.85.85v5.11c0,.47-.38.85-.85.85Z"/>
</svg>