<?xml version="1.0" encoding="UTF-8"?>
<svg id="Layer_1" data-name="Layer 1" xmlns="http://www.w3.org/2000/svg" viewBox="0 0 665.73 437.59">
  <defs>
    <style>
      .cls-1 {
        fill: #3a3c32;
      }

      .cls-2 {
        fill: #fdfdf1;
      }

      .cls-3 {
        fill: #feb3b1;
      }

      .cls-4 {
        fill: #ad8985;
      }
    </style>
  </defs>
  <polygon class="cls-2" points="275.04 95.32 284.47 143.47 377.36 144.28 388.44 95.32 373.81 95.32 363.48 86.56 355.67 93.73 345.88 96.03 338.76 93.94 331.12 82.28 327.6 93.73 318.83 96.95 303.86 92.5 298.99 82.28 292.58 93.02 282.91 96.03 275.04 95.32"/>
  <path class="cls-3" d="M361.13,24.05s-7.83-6.72-22.79-6.89-25.26-.14-36.55,7.03c-11.29,7.17-27.56,23.96-30.45,31.49-2.89,7.52-6.11,26.83-5.9,30.49.21,3.66,2.68,7.65,9.61,9.16,6.93,1.51,14.43,1.1,17.53-2.31,3.11-3.41,5.94-12.59,5.94-12.59,0,0,2.2,9.81,5.34,12.07,0,0,9.64,3.88,17.07,3.26,7.43-.62,12.54-5.81,11.58-9.96-.96-4.15-3.13,5.24,6.25,8.14,9.38,2.89,10.63,3.94,14.54,2.07,3.91-1.87,9.02-4.54,10.18-9.45,1.15-4.91,5.13,5.15,7.41,6.67,2.28,1.52,8.66,4.69,12.96,3.39,4.3-1.3,10.41-5.29,11.67-7.94,1.26-2.65,2.15-16.39,0-22.92-2.15-6.54-4.99-23.13-15.78-30.14-10.79-7.01-18.6-11.57-18.6-11.57Z"/>
  <g>
    <path class="cls-1" d="M0,348c2.07-1.28,3.91-3.56,3.91-7.27v-82.06c0-3.7-1.84-5.98-3.91-7.27v-1.57h50.03c26.34,0,40.48,21.08,40.48,49.86,0,26.21-14.15,49.86-40.48,49.86H0v-1.57ZM50.03,330.05c15.53,0,22.08-13.39,22.08-30.34s-7.71-30.34-22.2-30.34h-28.64v60.69h28.75Z"/>
    <path class="cls-1" d="M109.48,348c1.96-1.28,3.91-3.56,3.91-7.27v-82.06c0-3.7-1.96-5.98-3.91-7.27v-1.57h72.68v24.36h-1.27c-1.04-2.42-2.88-4.84-5.87-4.84h-44.39v18.8h24.61c3.11,0,4.83-2.42,5.87-4.84h1.27v29.2h-1.27c-1.03-2.42-2.76-4.84-5.87-4.84h-24.61v22.37h46.81c2.99,0,4.83-2.42,5.87-4.84h1.27v24.36h-75.1v-1.57Z"/>
    <path class="cls-1" d="M218.15,313.24c5.75,9.54,17.6,17.52,29.1,17.52,8.63,0,17.02-3.56,17.02-9.97s-5.52-8.83-16.22-10.83c-16.45-3.42-39.91-7.84-39.91-34.19,0-15.1,13.11-27.64,32.89-27.64,14.61,0,24.15,5.41,31.86,11.68,2.3,1.42,4.6.57,6.44-.57l1.04.85-11.85,21.23c-7.25-8.12-16.1-13.39-28.29-13.39-9.78,0-14.15,3.99-14.15,8.12s2.19,8.12,20.01,12.11c16.1,3.56,36.34,9.69,36.34,32.62,0,16.1-13,30.49-35.31,30.49-12.65,0-25.07-4.27-36.69-15.38-1.96-1.28-4.14-.86-5.87.14l-1.04-1,14.61-21.8Z"/>
    <path class="cls-1" d="M315.44,313.24c5.75,9.54,17.6,17.52,29.1,17.52,8.63,0,17.02-3.56,17.02-9.97s-5.52-8.83-16.22-10.83c-16.45-3.42-39.91-7.84-39.91-34.19,0-15.1,13.11-27.64,32.89-27.64,14.61,0,24.15,5.41,31.86,11.68,2.3,1.42,4.6.57,6.44-.57l1.04.85-11.85,21.23c-7.25-8.12-16.1-13.39-28.29-13.39-9.78,0-14.15,3.99-14.15,8.12s2.19,8.12,20.01,12.11c16.1,3.56,36.34,9.69,36.34,32.62,0,16.1-13,30.49-35.31,30.49-12.65,0-25.07-4.27-36.69-15.38-1.96-1.28-4.14-.86-5.87.14l-1.04-1,14.61-21.8Z"/>
    <path class="cls-1" d="M398.7,348c1.96-1.28,3.91-3.56,3.91-7.27v-82.06c0-3.7-1.96-5.98-3.91-7.27v-1.57h72.68v24.36h-1.27c-1.03-2.42-2.88-4.84-5.87-4.84h-44.39v18.8h24.61c3.11,0,4.83-2.42,5.87-4.84h1.27v29.2h-1.27c-1.03-2.42-2.76-4.84-5.87-4.84h-24.61v22.37h46.81c2.99,0,4.83-2.42,5.87-4.84h1.27v24.36h-75.1v-1.57Z"/>
    <path class="cls-1" d="M493.34,348c2.07-1.28,4.03-3.56,4.03-7.27v-82.06c0-3.7-1.96-5.98-4.03-7.27v-1.57h50.14c15.41,0,24.5,11.4,24.5,26.93s-8.4,25.64-23.12,28.35c3.91,10.97,9.55,25.79,13.69,35.62,1.61,3.99,4.83,5.98,7.59,7.27v1.57h-27.6v-1.57c1.27-1.28,1.73-3.13.23-7.27l-12.19-34.9h-11.96v34.9c0,3.7,1.96,5.98,3.91,7.27v1.57h-25.19v-1.57ZM538.66,287.31c9.09,0,13.34-3.99,13.34-9.69s-4.25-9.26-13.34-9.26h-24.04v18.95h24.04Z"/>
    <path class="cls-1" d="M585.8,249.84h79.93v24.36h-1.27c-1.04-2.42-2.88-4.84-5.87-4.84h-24.15v71.37c0,3.7,1.84,5.98,3.91,7.27v1.57h-25.19v-1.57c1.96-1.28,3.91-3.56,3.91-7.27v-71.37h-24.15c-3.11,0-4.83,2.42-5.87,4.84h-1.26v-24.36Z"/>
  </g>
  <g>
    <g>
      <path class="cls-1" d="M289.64,183.77h-10.75v-6.34h29.28v6.34h-10.75v27.27h-7.78v-27.27Z"/>
      <path class="cls-1" d="M347.01,177.44v33.6h-7.78v-13.78h-15.27v13.78h-7.78v-33.6h7.78v13.25h15.27v-13.25h7.78Z"/>
      <path class="cls-1" d="M384.83,204.8v6.24h-26.02v-33.6h25.39v6.24h-17.67v7.3h15.6v6.05h-15.6v7.78h18.29Z"/>
    </g>
    <g>
      <g>
        <path class="cls-1" d="M104.07,205.87H7.9c-3.59,0-6.5-2.91-6.5-6.5s2.91-6.5,6.5-6.5h96.17c3.59,0,6.5,2.91,6.5,6.5s-2.91,6.5-6.5,6.5Z"/>
        <path class="cls-1" d="M151.45,206.37c-.46,0-.92-.05-1.37-.14-.45-.09-.89-.22-1.31-.4-.42-.17-.83-.39-1.21-.64-.38-.26-.74-.55-1.06-.87-.32-.32-.62-.68-.87-1.07-.25-.38-.47-.78-.65-1.2-.17-.43-.31-.87-.4-1.31-.09-.46-.13-.92-.13-1.37s.04-.92.13-1.37.23-.89.4-1.31c.18-.42.4-.83.65-1.21s.55-.74.87-1.06c.32-.33.68-.62,1.06-.87.38-.25.79-.47,1.21-.65.42-.17.86-.3,1.31-.39.9-.19,1.83-.19,2.74,0,.44.09.88.22,1.31.39.42.18.82.4,1.2.65.39.25.74.54,1.07.87.32.32.61.68.87,1.06.25.38.47.79.64,1.21.18.42.31.86.4,1.31.09.45.14.91.14,1.37s-.05.91-.14,1.37c-.09.44-.22.88-.4,1.31-.17.42-.39.82-.64,1.2-.26.39-.55.75-.87,1.07-.33.32-.68.61-1.07.87-.38.25-.78.47-1.2.64-.43.18-.87.31-1.31.4-.46.09-.92.14-1.37.14Z"/>
        <path class="cls-1" d="M198.83,206.37c-1.84,0-3.65-.75-4.95-2.05-.32-.32-.61-.68-.87-1.07-.25-.38-.47-.78-.64-1.2-.18-.43-.31-.87-.4-1.31-.09-.46-.14-.92-.14-1.37,0-1.84.75-3.65,2.05-4.95s3.11-2.05,4.95-2.05,3.65.75,4.95,2.05c1.31,1.3,2.05,3.11,2.05,4.95,0,.45-.04.91-.13,1.37-.1.44-.23.88-.4,1.31-.18.42-.4.82-.65,1.2-.25.39-.55.75-.87,1.07-1.3,1.3-3.11,2.05-4.95,2.05Z"/>
      </g>
      <g>
        <path class="cls-1" d="M561.67,205.87h96.17c3.59,0,6.5-2.91,6.5-6.5s-2.91-6.5-6.5-6.5h-96.17c-3.59,0-6.5,2.91-6.5,6.5s2.91,6.5,6.5,6.5Z"/>
        <path class="cls-1" d="M514.28,206.37c.46,0,.92-.05,1.37-.14.45-.09.89-.22,1.31-.4.42-.17.83-.39,1.21-.64.38-.26.74-.55,1.06-.87.32-.32.62-.68.87-1.07.25-.38.47-.78.65-1.2.17-.43.31-.87.4-1.31.09-.46.13-.92.13-1.37,0-.46-.04-.92-.13-1.37s-.23-.89-.4-1.31c-.18-.42-.4-.83-.65-1.21s-.55-.74-.87-1.06c-.32-.33-.68-.62-1.06-.87-.38-.25-.79-.47-1.21-.65-.42-.17-.86-.3-1.31-.39-.9-.19-1.83-.19-2.74,0-.44.09-.88.22-1.31.39-.42.18-.82.4-1.2.65-.39.25-.74.54-1.07.87-.32.32-.61.68-.87,1.06-.25.38-.47.79-.64,1.21-.18.42-.31.86-.4,1.31-.09.45-.14.91-.14,1.37,0,.45.05.91.14,1.37.09.44.22.88.4,1.31.17.42.39.82.64,1.2.26.39.55.75.87,1.07.33.32.68.61,1.07.87.38.25.78.47,1.2.64.43.18.87.31,1.31.4.46.09.92.14,1.37.14Z"/>
        <path class="cls-1" d="M466.9,206.37c1.84,0,3.65-.75,4.95-2.05.32-.32.61-.68.87-1.07.25-.38.47-.78.64-1.2.18-.43.31-.87.4-1.31.09-.46.14-.92.14-1.37,0-1.84-.75-3.65-2.05-4.95s-3.11-2.05-4.95-2.05-3.65.75-4.95,2.05c-1.31,1.3-2.05,3.11-2.05,4.95,0,.45.04.91.13,1.37.1.44.23.88.4,1.31.18.42.4.82.65,1.2.25.39.55.75.87,1.07,1.3,1.3,3.11,2.05,4.95,2.05Z"/>
      </g>
    </g>
  </g>
  <g>
    <g>
      <path class="cls-1" d="M281.35,389.18v47.59h-9.04l-23.73-28.9v28.9h-10.88v-47.59h9.11l23.66,28.9v-28.9h10.88Z"/>
      <path class="cls-1" d="M334.94,427.94v8.84h-36.85v-47.59h35.97v8.84h-25.02v10.33h22.1v8.57h-22.1v11.02h25.91Z"/>
      <path class="cls-1" d="M345.41,432.08l3.74-8.29c4.01,2.92,9.99,4.96,15.71,4.96,6.53,0,9.18-2.18,9.18-5.1,0-8.91-27.67-2.79-27.67-20.47,0-8.09,6.53-14.82,20.06-14.82,5.98,0,12.1,1.43,16.52,4.22l-3.4,8.36c-4.42-2.52-8.98-3.74-13.19-3.74-6.53,0-9.04,2.45-9.04,5.44,0,8.77,27.67,2.72,27.67,20.19,0,7.96-6.6,14.75-20.19,14.75-7.55,0-15.16-2.24-19.38-5.51Z"/>
      <path class="cls-1" d="M407.15,398.16h-15.23v-8.97h41.48v8.97h-15.23v38.62h-11.01v-38.62Z"/>
    </g>
    <g>
      <path class="cls-1" d="M104.07,419.43H7.9c-3.59,0-6.5-2.91-6.5-6.5s2.91-6.5,6.5-6.5h96.17c3.59,0,6.5,2.91,6.5,6.5s-2.91,6.5-6.5,6.5Z"/>
      <path class="cls-1" d="M151.45,419.93c-.46,0-.92-.05-1.37-.14-.45-.09-.89-.22-1.31-.4-.42-.17-.83-.39-1.21-.64-.38-.26-.74-.55-1.06-.87-.32-.32-.62-.68-.87-1.07-.25-.38-.47-.78-.65-1.2-.17-.43-.31-.87-.4-1.31-.09-.46-.13-.92-.13-1.37s.04-.92.13-1.37.23-.89.4-1.31c.18-.42.4-.83.65-1.21s.55-.74.87-1.06c.32-.33.68-.62,1.06-.87.38-.25.79-.47,1.21-.65.42-.17.86-.3,1.31-.39.9-.19,1.83-.19,2.74,0,.44.09.88.22,1.31.39.42.18.82.4,1.2.65.39.25.74.54,1.07.87.32.32.61.68.87,1.06.25.38.47.79.64,1.21.18.42.31.86.4,1.31.09.45.14.91.14,1.37s-.05.91-.14,1.37c-.09.44-.22.88-.4,1.31-.17.42-.39.82-.64,1.2-.26.39-.55.75-.87,1.07-.33.32-.68.61-1.07.87-.38.25-.78.47-1.2.64-.43.18-.87.31-1.31.4-.46.09-.92.14-1.37.14Z"/>
      <path class="cls-1" d="M198.83,419.93c-1.84,0-3.65-.75-4.95-2.05-.32-.32-.61-.68-.87-1.07-.25-.38-.47-.78-.64-1.2-.18-.43-.31-.87-.4-1.31-.09-.46-.14-.92-.14-1.37,0-1.84.75-3.65,2.05-4.95s3.11-2.05,4.95-2.05,3.65.75,4.95,2.05c1.31,1.3,2.05,3.11,2.05,4.95,0,.45-.04.91-.13,1.37-.1.44-.23.88-.4,1.31-.18.42-.4.82-.65,1.2-.25.39-.55.75-.87,1.07-1.3,1.3-3.11,2.05-4.95,2.05Z"/>
    </g>
    <g>
      <path class="cls-1" d="M561.67,419.43h96.17c3.59,0,6.5-2.91,6.5-6.5s-2.91-6.5-6.5-6.5h-96.17c-3.59,0-6.5,2.91-6.5,6.5s2.91,6.5,6.5,6.5Z"/>
      <path class="cls-1" d="M514.28,419.93c.46,0,.92-.05,1.37-.14.45-.09.89-.22,1.31-.4.42-.17.83-.39,1.21-.64.38-.26.74-.55,1.06-.87.32-.32.62-.68.87-1.07.25-.38.47-.78.65-1.2.17-.43.31-.87.4-1.31.09-.46.13-.92.13-1.37,0-.46-.04-.92-.13-1.37s-.23-.89-.4-1.31c-.18-.42-.4-.83-.65-1.21s-.55-.74-.87-1.06c-.32-.33-.68-.62-1.06-.87-.38-.25-.79-.47-1.21-.65-.42-.17-.86-.3-1.31-.39-.9-.19-1.83-.19-2.74,0-.44.09-.88.22-1.31.39-.42.18-.82.4-1.2.65-.39.25-.74.54-1.07.87-.32.32-.61.68-.87,1.06-.25.38-.47.79-.64,1.21-.18.42-.31.86-.4,1.31-.09.45-.14.91-.14,1.37,0,.45.05.91.14,1.37.09.44.22.88.4,1.31.17.42.39.82.64,1.2.26.39.55.75.87,1.07.33.32.68.61,1.07.87.38.25.78.47,1.2.64.43.18.87.31,1.31.4.46.09.92.14,1.37.14Z"/>
      <path class="cls-1" d="M466.9,419.93c1.84,0,3.65-.75,4.95-2.05.32-.32.61-.68.87-1.07.25-.38.47-.78.64-1.2.18-.43.31-.87.4-1.31.09-.46.14-.92.14-1.37,0-1.84-.75-3.65-2.05-4.95s-3.11-2.05-4.95-2.05c-1.84,0-3.65.75-4.95,2.05-1.31,1.3-2.05,3.11-2.05,4.95,0,.45.04.91.13,1.37.1.44.23.88.4,1.31.18.42.4.82.65,1.2.25.39.55.75.87,1.07,1.3,1.3,3.11,2.05,4.95,2.05Z"/>
    </g>
  </g>
  <circle class="cls-4" cx="331.74" cy="17.12" r="12.4"/>
  <path class="cls-1" d="M378.85,146.79h-94.52c-1.49,0-2.76-1.06-3.05-2.52l-9.01-46.89c-5.94-3.36-9.95-9.7-9.95-16.96,0-.92.07-1.84.19-2.75l.03-.4c2.34-29.11,23.48-53.85,51.79-61.07.5-9.02,8.05-16.21,17.25-16.21s16.76,7.19,17.25,16.21c28.77,7.3,49.69,32.11,51.83,61.56.12.88.18,1.77.18,2.65,0,7.26-4.01,13.6-9.95,16.96l-9.01,46.89c-.28,1.46-1.56,2.52-3.05,2.52ZM286.9,140.59h89.39l7.86-40.88c-.95.14-1.92.21-2.9.21,0,0,0,0-.02,0h-.06c-6.92-.02-13.01-3.6-16.5-8.99-3.49,5.39-9.58,8.98-16.5,8.99h0s-.01,0-.02,0h-.02s-.02,0-.02,0h-.02c-6.92-.02-13.01-3.6-16.5-9-.53.82-1.13,1.6-1.77,2.33-3.59,4.07-8.86,6.65-14.7,6.67h0s-.01,0-.02,0c0,0-.01,0-.02,0h-.02s-.02,0-.02,0h-.02c-6.92-.02-13.01-3.6-16.5-8.99-3.49,5.4-9.59,8.98-16.51,8.99,0,0,0,0-.02,0h-.03s-.01,0-.02,0c-.98,0-1.95-.07-2.9-.21l7.86,40.88ZM381.21,93.73h.02s0,0,.01,0c7.36-.01,13.35-5.9,13.42-13.17-.03-.14-.05-.29-.06-.43l-.1-1.76c-1.87-26.59-20.6-49.06-46.45-55.94-2.24,6.9-8.77,11.91-16.45,11.91s-14.21-5.01-16.45-11.91c-25.4,6.8-44.3,29.13-46.41,55.31l-.03.47c0,.09-.01.18-.03.26-.1.65-.15,1.31-.15,1.97,0,7.33,6.02,13.29,13.42,13.3,0,0,0,0,.01,0h.02s0,0,0,0c6.38,0,11.84-4.52,13.13-10.56.11-.53.19-1.07.24-1.62l.04-1.14c0-.07,0-.14.01-.21.11-1.61,1.46-2.88,3.09-2.88s3.1,1.39,3.1,3.1c0,.09,0,.18,0,.26l.04.74c.24,3.22,1.65,6.12,3.81,8.3,2.45,2.46,5.85,3.99,9.56,4,0,0,0,0,.01,0h.03s0,0,0,0c0,0,0,0,.01,0h.02c3.28-.01,6.32-1.21,8.67-3.2,2.68-2.28,4.46-5.58,4.68-9.29l.03-.78c0-.09,0-.17.02-.25v-.05c.15-1.65,1.55-2.91,3.23-2.83,1.66.07,2.96,1.44,2.96,3.1,0,.09,0,.18,0,.26l.04.74c.24,3.16,1.6,6.02,3.69,8.18,2.45,2.53,5.9,4.11,9.68,4.11,0,0,0,0,.01,0h.04s0,0,.01,0c5.87-.01,10.95-3.83,12.73-9.13.33-1,.55-2.05.64-3.13l.03-1.04s0-.08,0-.12c0-.26,0-.51.03-.78.16-1.66,1.62-2.91,3.28-2.8,1.67.1,2.95,1.51,2.91,3.18l-.02.55c0,.06,0,.13,0,.19l.04.81c.25,3.14,1.6,5.98,3.68,8.14,2.45,2.53,5.91,4.12,9.69,4.13,0,0,0,0,.01,0h0ZM320.61,18.55c.69,5.39,5.36,9.57,10.99,9.57s10.41-4.28,11.01-9.77c0,0,0-.01,0-.02.04-.38.06-.77.06-1.16h0c0-6.05-4.97-10.97-11.08-10.97s-11.08,4.92-11.08,10.96h0c0,.4.02.77.06,1.09.01.1.02.2.02.29ZM358.77,132.74c-.13,0-.26,0-.39-.02-1.7-.21-2.9-1.77-2.69-3.46l2.36-18.75c.21-1.7,1.77-2.9,3.46-2.69,1.7.21,2.9,1.77,2.69,3.46l-2.36,18.75c-.2,1.57-1.53,2.71-3.07,2.71ZM306.78,132.74c-1.54,0-2.88-1.15-3.07-2.71l-2.36-18.75c-.21-1.7.99-3.25,2.69-3.46,1.7-.22,3.25.99,3.46,2.69l2.36,18.75c.21,1.7-.99,3.25-2.69,3.46-.13.02-.26.02-.39.02ZM332.78,132.73c-1.71,0-3.1-1.39-3.1-3.1v-18.75c0-1.71,1.39-3.1,3.1-3.1s3.1,1.39,3.1,3.1v18.75c0,1.71-1.39,3.1-3.1,3.1Z"/>
</svg>